<svg width="24" height="24" viewBox="0 0 24 24" fill="none" xmlns="http://www.w3.org/2000/svg">
<path d="M16.3397 23.5514H7.68466C6.81873 23.5389 5.98944 23.2 5.36262 22.6024C4.7358 22.0048 4.35765 21.1927 4.3038 20.3283L3.27827 4.73128C3.27301 4.61819 3.29022 4.50519 3.32891 4.3988C3.3676 4.29241 3.42699 4.19475 3.50366 4.11145C3.58264 4.02513 3.67827 3.95567 3.78479 3.90725C3.8913 3.85884 4.00651 3.83246 4.12348 3.82971H19.9008C20.0167 3.82946 20.1315 3.85304 20.2379 3.89899C20.3443 3.94495 20.4401 4.0123 20.5193 4.09685C20.5986 4.1814 20.6596 4.28136 20.6986 4.3905C20.7377 4.49964 20.7538 4.61564 20.7461 4.73128L19.7656 20.3283C19.7112 21.2004 19.3267 22.019 18.6903 22.6177C18.0539 23.2164 17.2134 23.5502 16.3397 23.5514ZM5.07013 5.52015L5.93788 20.2269C5.96655 20.6704 6.16317 21.0862 6.4877 21.3898C6.81223 21.6934 7.24027 21.8619 7.68466 21.861H16.3397C16.7833 21.8592 17.2098 21.6899 17.5338 21.3868C17.8578 21.0837 18.0552 20.6694 18.0865 20.2269L18.9993 5.57649L5.07013 5.52015Z" fill="black"/>
<path d="M22.1548 5.52014H1.86963C1.64546 5.52014 1.43048 5.43109 1.27197 5.27259C1.11346 5.11408 1.02441 4.89909 1.02441 4.67493C1.02441 4.45076 1.11346 4.23578 1.27197 4.07727C1.43048 3.91876 1.64546 3.82971 1.86963 3.82971H22.1548C22.379 3.82971 22.594 3.91876 22.7525 4.07727C22.911 4.23578 23 4.45076 23 4.67493C23 4.89909 22.911 5.11408 22.7525 5.27259C22.594 5.43109 22.379 5.52014 22.1548 5.52014Z" fill="black"/>
<path d="M15.3931 5.52003H8.63135C8.40809 5.51711 8.1948 5.42712 8.03692 5.26924C7.87904 5.11136 7.78905 4.89807 7.78613 4.67481V2.64629C7.80042 2.06796 8.03653 1.51726 8.4456 1.1082C8.85467 0.699131 9.40536 0.463017 9.98369 0.44873H14.0407C14.6287 0.463434 15.1876 0.707374 15.5982 1.12848C16.0088 1.54959 16.2385 2.1145 16.2383 2.70264V4.67481C16.2354 4.89807 16.1454 5.11136 15.9875 5.26924C15.8296 5.42712 15.6163 5.51711 15.3931 5.52003ZM9.47656 3.82959H14.5479V2.70264C14.5479 2.56814 14.4944 2.43915 14.3993 2.34404C14.3042 2.24894 14.1752 2.19551 14.0407 2.19551H9.98369C9.84919 2.19551 9.7202 2.24894 9.6251 2.34404C9.52999 2.43915 9.47656 2.56814 9.47656 2.70264V3.82959ZM15.3931 19.0435C15.1698 19.0406 14.9565 18.9506 14.7986 18.7927C14.6408 18.6348 14.5508 18.4215 14.5479 18.1983V9.18263C14.5479 8.95846 14.6369 8.74348 14.7954 8.58497C14.9539 8.42646 15.1689 8.33741 15.3931 8.33741C15.6172 8.33741 15.8322 8.42646 15.9907 8.58497C16.1492 8.74348 16.2383 8.95846 16.2383 9.18263V18.1983C16.2354 18.4215 16.1454 18.6348 15.9875 18.7927C15.8296 18.9506 15.6163 19.0406 15.3931 19.0435ZM8.63135 19.0435C8.40809 19.0406 8.1948 18.9506 8.03692 18.7927C7.87904 18.6348 7.78905 18.4215 7.78613 18.1983V9.18263C7.78613 8.95846 7.87518 8.74348 8.03369 8.58497C8.1922 8.42646 8.40718 8.33741 8.63135 8.33741C8.85551 8.33741 9.0705 8.42646 9.22901 8.58497C9.38751 8.74348 9.47656 8.95846 9.47656 9.18263V18.1983C9.47365 18.4215 9.38366 18.6348 9.22578 18.7927C9.0679 18.9506 8.85461 19.0406 8.63135 19.0435ZM12.0122 19.0435C11.789 19.0406 11.5757 18.9506 11.4178 18.7927C11.2599 18.6348 11.1699 18.4215 11.167 18.1983V9.18263C11.167 8.95846 11.256 8.74348 11.4146 8.58497C11.5731 8.42646 11.788 8.33741 12.0122 8.33741C12.2364 8.33741 12.4514 8.42646 12.6099 8.58497C12.7684 8.74348 12.8574 8.95846 12.8574 9.18263V18.1983C12.8545 18.4215 12.7645 18.6348 12.6066 18.7927C12.4488 18.9506 12.2355 19.0406 12.0122 19.0435Z" fill="black"/>
</svg>
