<svg width="55" height="45" viewBox="0 0 55 45" fill="none" xmlns="http://www.w3.org/2000/svg">
<path d="M27.5478 44.2546C26.8514 44.2546 26.1802 44.0024 25.6571 43.5441C23.6812 41.8165 21.7764 40.193 20.0958 38.7609L20.0872 38.7534C15.1599 34.5545 10.905 30.9284 7.94453 27.3563C4.63521 23.3631 3.09375 19.5767 3.09375 15.4405C3.09375 11.4218 4.47177 7.71425 6.97363 5.00043C9.50538 2.25451 12.9793 0.742188 16.7566 0.742188C19.5798 0.742188 22.1652 1.63476 24.441 3.39487C25.5895 4.28324 26.6305 5.37058 27.5478 6.63885C28.4653 5.37058 29.506 4.28324 30.6548 3.39487C32.9307 1.63476 35.5161 0.742188 38.3393 0.742188C42.1162 0.742188 45.5905 2.25451 48.1223 5.00043C50.6241 7.71425 52.0018 11.4218 52.0018 15.4405C52.0018 19.5766 50.4607 23.363 47.1514 27.3559C44.1908 30.9284 39.9363 34.5541 35.0098 38.7527C33.3262 40.1871 31.4184 41.8132 29.4381 43.5449C28.9147 44.0026 28.243 44.2548 27.5478 44.2546ZM16.7566 3.60713C13.789 3.60713 38.4833 33.3493 36.5 35.5C34.4873 37.6833 5.95831 12.1435 5.95831 15.4405C5.95831 18.9192 7.25122 22.0304 10.1502 25.5283C12.9521 28.9093 17.1196 32.4608 21.9451 36.5732L21.954 36.5807C13.9202 33 11.9299 27.7597 13.9202 29.5C15.9225 27.7563 31.4612 38.0124 33.1515 36.5725C37.9766 32.4601 42.1438 28.9093 44.9457 25.5283C47.8443 22.0304 49.1372 18.9192 49.1372 15.4405C49.1372 12.1434 48.0285 9.12542 46.0159 6.94223C44.033 4.79152 41.3066 3.60713 38.3393 3.60713C36.1654 3.60713 34.1694 4.29824 32.4071 5.66088C30.8366 6.87584 29.7426 8.41167 29.1011 9.48631C28.7713 10.0389 28.1907 10.3688 27.5478 10.3688C26.9048 10.3688 26.3242 10.0389 25.9943 9.48631C25.3534 8.41167 24.2593 6.87584 22.6883 5.66088C20.9261 4.29824 18.9301 3.60713 16.7566 3.60713Z" fill="#E45128"/>
<path d="M4.5 15L8.5 8.5L11 4.5L17 2L23.5 4.5L27.5 8.5L30 6L35.5 2.5H43L48 7.5L51 15L47 25.5L34 37.5L26 40L16 33.5L8.5 25.5L5 20L4.5 15Z" fill="#E45128"/>
</svg>
