<svg width="24" height="24" viewBox="0 0 24 24" fill="none" xmlns="http://www.w3.org/2000/svg">
<path d="M12 22.3523C11.6583 22.3523 11.3289 22.2285 11.0722 22.0037C10.1026 21.1559 9.16791 20.3592 8.34319 19.6564L8.33897 19.6528C5.92106 17.5923 3.83311 15.8129 2.38036 14.06C0.756422 12.1005 0 10.2424 0 8.2127C0 6.24067 0.676219 4.42131 1.90392 3.08959C3.1463 1.74212 4.851 1 6.70458 1C8.08997 1 9.35869 1.438 10.4755 2.30172C11.0391 2.73766 11.5499 3.27123 12 3.89359C12.4502 3.27123 12.9609 2.73766 13.5247 2.30172C14.6415 1.438 15.9102 1 17.2956 1C19.149 1 20.8539 1.74212 22.0963 3.08959C23.324 4.42131 24 6.24067 24 8.2127C24 10.2424 23.2438 12.1004 21.6198 14.0598C20.167 15.8129 18.0793 17.5921 15.6617 19.6524C14.8356 20.3563 13.8994 21.1542 12.9276 22.004C12.6708 22.2286 12.3412 22.3524 12 22.3523ZM6.70458 2.40588C5.24836 2.40588 3.91059 2.98708 2.93738 4.04247C1.94972 5.11384 1.40569 6.59481 1.40569 8.2127C1.40569 9.9198 2.04014 11.4465 3.4627 13.163C4.83764 14.8221 6.88275 16.5649 9.25069 18.5829L9.25505 18.5866C10.0829 19.292 11.0213 20.0919 11.998 20.9459C12.9805 20.0902 13.9204 19.2891 14.7499 18.5825C17.1176 16.5645 19.1625 14.8221 20.5375 13.163C21.9599 11.4465 22.5943 9.9198 22.5943 8.2127C22.5943 6.59477 22.0503 5.1138 21.0626 4.04247C20.0896 2.98708 18.7517 2.40588 17.2956 2.40588C16.2288 2.40588 15.2494 2.74502 14.3846 3.41369C13.6139 4.00989 13.077 4.76355 12.7622 5.29089C12.6004 5.56206 12.3155 5.72392 12 5.72392C11.6845 5.72392 11.3996 5.56206 11.2377 5.29089C10.9232 4.76355 10.3863 4.00989 9.61538 3.41369C8.75063 2.74502 7.77117 2.40588 6.70458 2.40588Z" fill="black"/>
</svg>
